# xmcd CD database file
#
# Track frame offsets:
#	150
#	14989
#	30342
#	42033
#	55826
#	70730
#	81743
#	94673
#	109219
#	124660
#	138523
#	151739
#	163835
#	178135
#	189592
#	203760
#	214924
#	228236
#
# Disc length: 3239 seconds
#
# Revision: 0
# Processed by: cddbd v1.5PL3 Copyright (c) Steve Scherf et al.
# Submitted via: CDex 1.51
#
DISCID=fc0ca512
DTITLE=Nat King Cole - For Sentimental Reasons - Disk #2
DYEAR=2001
DGENRE=Jazz
TTITLE0=Mona Lisa
TTITLE1=Embracable You
TTITLE2=Orange Coloured Sky
TTITLE3=If I Had You
TTITLE4=The Frim From Sauce
TTITLE5=Little Girl
TTITLE6=You're Nobody Till Somebody Loves You
TTITLE7=I'll String Along With You
TTITLE8=Don't Blame Me
TTITLE9=I Miss You so
TTITLE10=I'm A Shy Guy
TTITLE11=If You Don't Like My Apples
TTITLE12=I Realize Now
TTITLE13=Makin' Whoopee
TTITLE14=I Just Can't See For Lookin'
TTITLE15=Jumpin' At Capitol
TTITLE16=Gee Baby, Ain't I Good To You
TTITLE17=Meet Me At No Special Place
EXTD=YEAR: 2001
EXTT0=
EXTT1=
EXTT2=
EXTT3=
EXTT4=
EXTT5=
EXTT6=
EXTT7=
EXTT8=
EXTT9=
EXTT10=
EXTT11=
EXTT12=
EXTT13=
EXTT14=
EXTT15=
EXTT16=
EXTT17=
PLAYORDER=
